<?xml version="1.0" encoding="UTF-8"?>
<svg id="Layer_2" data-name="Layer 2" xmlns="http://www.w3.org/2000/svg" viewBox="0 0 280.34 267.54">
  <defs>
    <style>
      .cls-1 {
        fill: #5e42fe;
      }
      .cls-2 {
        fill: #ffffff;
      }
    </style>
  </defs>
  <rect width="100%" height="100%" class="cls-1"/>
  <g id="Layer_2-2" data-name="Layer 2" transform="scale(0.7) translate(63 60)">
    <path class="cls-2" d="M245.11,63.23c-20.21,1.65-37.01,16.7-39.84,35.8-.23,1.53-1.75,3.61-3.26,3.99-16.63,4.14-16.71,3.84-33.34,7.98-3.23.81-6.11-3.23-4.53-6.13,7.42-13.58,8.26-13.12,15.68-26.7.72-1.32,1.41-2.9,2.92-2.79,1.27.09,2.5-.48,3.8-.52,21.5-.49,38.91-18.16,41.13-39.99C229.95,13.03,214.42-1.42,190.65.11c-23.75,1.49-42.88,17.7-42.81,38.59-.01,10.73,4.77,20.08,12.17,26.87,1.29,1.18.5,2.95-.33,4.48-7.85,14.38-6.5,15.12-14.35,29.49-1.47,2.68-5.87,2.32-7.28-.39-7.74-14.89-8.39-14.55-16.13-29.43-.76-1.46-.03-3.7,1.15-4.85,6.85-6.73,11.75-15.89,11.73-26.16.07-20.89-19.73-37.08-43.48-38.56-23.77-1.53-40.13,12.98-37.84,34.83,2.22,21.83,20.46,39.38,41.95,39.87,1.8.05,3.45.08,5.19-.1,1.59-.17,3.9,1.21,4.62,2.61,6.8,13.09,5.35,13.84,12.15,26.93,1.5,2.88-.13,4.78-3.32,4.01-16.88-4.07-17.2-2.73-34.09-6.8-1.5-.36-2.63-1.89-2.89-3.39-3.21-18.71-20.3-33.79-40.2-35.41C14.98,60.84-1.1,77.72.06,101.16c1.11,23.43,18.46,42.07,39.66,41.65,14.38-.23,26.33-8.81,32.78-20.64.82-1.51,3.41-2.65,5.11-2.24,17.88,4.31,17.58,5.55,35.46,9.86,3.04.73,4.31,4.32,1.93,6.32-14.62,12.25-14.25,12.69-28.87,24.94-1.24,1.03-3.57.44-4.97-.36-5.63-3.23-12.25-5.28-19.3-5.17-21.19.23-38.59,19.25-40.49,41.96-1.96,22.72,13.48,38.76,36.08,36.76,22.58-1.95,41-19.84,41.47-40.85.13-4.9.67-9.87-.95-14.16-.56-1.49-.95-2.93.28-3.96,14.32-12,14.19-12.15,28.5-24.14,2.53-2.12,6.96-.07,6.88,3.2-.47,17.47-.26,17.48-.73,34.94-.04,1.62-1.92,2.36-3.49,2.83-16.11,4.84-28.37,20.33-29.27,37.56-1.18,21.13,17.08,37.92,40.84,37.9,23.76.02,42.29-16.78,41.12-37.91-.85-16.43-12.67-30.25-27.65-35.74-1.53-.56-1.81-2.42-1.77-4.03.46-17.15-.23-17.16.23-34.31.09-3.2,3.36-4.07,5.81-1.97,12.91,11.05,13.3,10.6,26.22,21.65,1.22,1.04,1,2.04.43,3.53-1.72,4.4-1.88,9.59-1.74,14.66.49,21.02,19.7,39.13,42.28,41.12,22.6,2.04,37.28-14.14,35.31-36.91-1.92-22.75-18.58-41.76-39.78-41.99-6.89-.1-13.51,1.48-19.06,4.57-1.41.79-3.11,1.05-4.33,0-13.93-11.92-14.09-11.73-28.01-23.65-2.34-2-1.22-6.34,1.79-7.09,16.54-4.12,16.69-3.53,33.22-7.65,1.67-.42,3.94-.39,4.79,1.09,6.57,11.42,18.35,18.66,32.43,18.88,21.2.42,36.92-17.29,38.03-40.72,1.16-23.44-13.26-39.7-35.16-37.85Z"/>
  </g>
</svg>
